<?xml version="1.0" standalone="no"?>
<!DOCTYPE svg PUBLIC "-//W3C//DTD SVG 20010904//EN"
 "http://www.w3.org/TR/2001/REC-SVG-20010904/DTD/svg10.dtd">
<svg version="1.0" xmlns="http://www.w3.org/2000/svg"
 width="854.000000pt" height="806.000000pt" viewBox="0 0 854.000000 806.000000"
 preserveAspectRatio="xMidYMid meet">

<g transform="translate(0.000000,806.000000) scale(0.100000,-0.100000)"
fill="#000000" stroke="none">
<path d="M0 4030 l0 -4030 4270 0 4270 0 0 4030 0 4030 -4270 0 -4270 0 0
-4030z m7081 1884 c63 -20 152 -49 199 -64 47 -15 159 -51 250 -80 306 -98
412 -135 412 -145 0 -9 -24 -20 -137 -60 -22 -7 -78 -28 -125 -45 -47 -17
-105 -38 -130 -46 -25 -8 -54 -19 -65 -23 -11 -5 -36 -14 -55 -21 -19 -7 -44
-16 -55 -21 -11 -4 -40 -15 -65 -23 -50 -17 -113 -39 -240 -86 -47 -18 -92
-34 -101 -37 -17 -5 -40 2 -189 57 -47 17 -110 40 -140 51 -30 11 -66 24 -80
29 -14 4 -63 22 -110 40 -47 17 -105 38 -130 46 -25 8 -54 19 -65 23 -11 5
-36 14 -55 21 -19 7 -44 16 -55 20 -11 4 -36 13 -55 20 -94 32 -131 50 -126
58 3 5 51 23 108 42 57 18 168 54 248 80 80 26 233 76 340 110 107 35 213 69
235 76 56 18 60 18 186 -22z m-5357 -160 c3 -9 6 -375 6 -815 0 -440 4 -799 9
-799 4 0 79 66 167 148 87 81 181 167 208 192 28 24 83 74 121 110 39 37 97
91 130 121 33 30 98 91 145 135 47 45 101 95 120 110 19 16 73 65 120 110 47
44 144 134 215 199 72 65 191 175 265 245 74 70 168 157 209 193 l75 67 653 0
c437 0 653 -3 653 -10 0 -6 -62 -75 -137 -153 -76 -79 -244 -255 -373 -392
-129 -138 -290 -306 -356 -375 -67 -69 -152 -159 -190 -200 -38 -41 -134 -142
-214 -225 -80 -82 -255 -267 -390 -409 -135 -143 -294 -312 -355 -375 -60 -64
-157 -165 -215 -226 -58 -60 -184 -193 -280 -295 -96 -102 -229 -241 -295
-310 -67 -69 -204 -213 -305 -320 -102 -107 -203 -213 -225 -236 -22 -22 -137
-143 -255 -268 -118 -124 -219 -225 -225 -223 -7 3 -12 577 -15 1768 l-5 1764
-227 3 -228 2 0 240 0 240 594 0 c532 0 594 -2 600 -16z m4332 -370 c88 -35
116 -47 184 -77 19 -9 60 -25 90 -37 30 -12 70 -28 88 -36 17 -8 47 -20 65
-28 17 -8 79 -33 137 -56 58 -23 129 -53 158 -66 l52 -24 0 -600 c0 -583 -1
-600 -19 -600 -11 0 -36 9 -58 20 -21 11 -69 34 -108 51 -74 33 -127 57 -337
153 -29 13 -75 34 -103 46 -27 13 -92 42 -143 66 -52 24 -97 44 -102 44 -4 0
-11 7 -14 16 -3 9 -6 274 -6 590 0 466 2 574 13 574 7 0 53 -16 103 -36z
m1907 -538 c4 -316 5 -580 2 -587 -5 -14 -32 -28 -160 -85 -33 -14 -85 -38
-115 -51 -30 -14 -73 -33 -95 -43 -22 -10 -65 -29 -95 -43 -30 -13 -77 -35
-105 -47 -60 -26 -126 -56 -218 -99 -37 -17 -74 -31 -82 -31 -13 0 -15 78 -15
599 0 467 3 601 13 608 6 5 50 25 97 43 47 18 108 44 135 56 28 12 75 32 105
44 30 12 70 28 88 36 17 8 47 20 65 28 17 8 57 24 87 36 30 12 69 27 85 35 17
7 50 21 75 32 25 11 56 24 70 30 61 28 56 67 63 -561z m-3478 -924 c222 -40
367 -117 455 -243 116 -165 143 -440 65 -664 -28 -80 -93 -170 -190 -260 -92
-85 -114 -103 -525 -412 -129 -97 -258 -196 -287 -220 -60 -51 -96 -118 -91
-172 l3 -36 185 0 c273 0 295 14 315 200 l10 100 295 3 c162 1 305 0 318 -3
l22 -5 -2 -393 -3 -392 -885 0 -885 0 0 360 c0 350 1 362 23 430 31 91 59 138
124 205 29 31 232 189 450 353 419 314 487 371 512 432 36 86 7 212 -58 251
-145 88 -347 36 -407 -104 -15 -35 -19 -69 -19 -166 0 -82 -4 -126 -12 -134
-14 -14 -534 -17 -556 -4 -9 7 -12 82 -10 342 l3 334 90 47 c132 69 384 148
477 150 18 0 42 4 53 9 27 12 454 5 530 -8z"/>
</g>
</svg>
